HIERARCHY
ROOT Hips
{
 OFFSET 0.000000 0.000000 0.000000
 CHANNELS 6 Xposition Yposition Zposition Yrotation Xrotation Zrotation
 JOINT Chest
 {
  OFFSET 0.000000 9.585900 0.002600
  CHANNELS 3 Yrotation Xrotation Zrotation
  JOINT Chest2
  {
   OFFSET 0.000000 9.601200 -0.005300
   CHANNELS 3 Yrotation Xrotation Zrotation
   JOINT Chest3
   {
    OFFSET 0.000000 9.561800 0.000000
    CHANNELS 3 Yrotation Xrotation Zrotation
    JOINT Chest4
    {
     OFFSET 0.000000 9.552100 0.000000
     CHANNELS 3 Yrotation Xrotation Zrotation
     JOINT Neck
     {
      OFFSET 0.000000 14.453000 0.000000
      CHANNELS 3 Yrotation Xrotation Zrotation
      JOINT Head
      {
       OFFSET 0.000000 8.936500 -0.011300
       CHANNELS 3 Yrotation Xrotation Zrotation
       End Site
       {
        OFFSET 0.000000 17.073600 -0.006000
       }
      }
     }
     JOINT RightCollar
     {
      OFFSET -2.921100 9.558500 0.000000
      CHANNELS 3 Yrotation Xrotation Zrotation
      JOINT RightShoulder
      {
       OFFSET -13.519700 0.000000 0.000000
       CHANNELS 3 Yrotation Xrotation Zrotation
       JOINT RightElbow
       {
        OFFSET 0.000000 -29.696600 0.000000
        CHANNELS 3 Yrotation Xrotation Zrotation
        JOINT RightWrist
        {
         OFFSET 0.000000 -24.004700 0.000000
         CHANNELS 3 Yrotation Xrotation Zrotation
         End Site
         {
          OFFSET 0.000000 -17.728500 0.000000
         }
        }
       }
      }
     }
     JOINT LeftCollar
     {
      OFFSET 2.921100 9.558500 0.000000
      CHANNELS 3 Yrotation Xrotation Zrotation
      JOINT LeftShoulder
      {
       OFFSET 13.519700 0.000000 0.000000
       CHANNELS 3 Yrotation Xrotation Zrotation
       JOINT LeftElbow
       {
        OFFSET 0.000000 -29.696600 0.000000
        CHANNELS 3 Yrotation Xrotation Zrotation
        JOINT LeftWrist
        {
         OFFSET 0.000000 -24.004700 0.000000
         CHANNELS 3 Yrotation Xrotation Zrotation
         End Site
         {
          OFFSET 0.000000 -17.728500 0.000000
         }
        }
       }
      }
     }
    }
   }
  }
 }
 JOINT RightHip
 {
  OFFSET -7.771700 -0.012900 -0.001300
  CHANNELS 3 Yrotation Xrotation Zrotation
  JOINT RightKnee
  {
   OFFSET 0.000000 -40.869800 0.001200
   CHANNELS 3 Yrotation Xrotation Zrotation
   JOINT RightAnkle
   {
    OFFSET 0.000000 -39.717900 0.002100
    CHANNELS 3 Yrotation Xrotation Zrotation
    JOINT RightToe
    {
     OFFSET 0.000000 -4.965400 11.033500
     CHANNELS 3 Yrotation Xrotation Zrotation
     End Site
     {
      OFFSET 0.000000 -1.423100 5.872300
     }
    }
   }
  }
 }
 JOINT LeftHip
 {
  OFFSET 7.771700 -0.012900 -0.001300
  CHANNELS 3 Yrotation Xrotation Zrotation
  JOINT LeftKnee
  {
   OFFSET 0.000000 -40.869800 0.001200
   CHANNELS 3 Yrotation Xrotation Zrotation
   JOINT LeftAnkle
   {
    OFFSET 0.000000 -39.717900 0.002100
    CHANNELS 3 Yrotation Xrotation Zrotation
    JOINT LeftToe
    {
     OFFSET 0.000000 -4.965400 11.033500
     CHANNELS 3 Yrotation Xrotation Zrotation
     End Site
     {
      OFFSET 0.000000 -1.423100 5.872300
     }
    }
   }
  }
 }
}
MOTION
Frames: 8
Frame Time: 0.008333
-34.331158 52.843330 -1.294018 -177.136688 -18.147597 -2.128406 1.005131 15.796662 -0.049034 0.099836 1.558052 -0.019392 0.155939 2.534567 -0.010963 0.875053 14.016491 0.002511 -2.583363 19.090902 3.569200 -3.516411 -5.432924 4.417699 -0.474101 -1.148901 2.932511 1.605850 -7.986114 -6.020755 -86.097450 -73.003203 120.443860 -8.230840 -16.560496 -14.973031 -4.820289 -1.805327 1.758306 4.041831 -5.325812 9.010953 75.290047 -57.588511 -117.652192 4.906632 -5.804372 6.859553 2.932567 -60.585068 10.373844 -178.061613 86.004759 179.862739 -14.088257 -23.499712 12.297913 0.019338 -0.047582 -0.104467 4.643306 -59.226172 -3.805052 120.863749 77.940253 118.848080 -6.685927 -18.695057 -1.208908 0.008023 0.150629 -0.011717
-34.336819 52.841033 -1.287814 -177.152876 -18.199716 -2.110493 1.007853 15.779156 -0.046827 0.104249 1.587258 -0.027524 0.149481 2.474831 0.001973 0.877855 13.998465 0.002477 -2.552324 19.185697 3.551901 -3.413489 -5.391141 4.404198 -0.482327 -1.117249 2.946305 1.601393 -7.991977 -6.003444 -86.002884 -72.984870 120.340860 -8.235693 -16.579853 -14.989667 -4.840953 -1.788073 1.749563 4.055820 -5.345356 9.029142 74.856721 -57.515521 -117.242507 4.925503 -5.596329 6.920130 2.917159 -60.533602 10.371446 -178.061601 86.008767 179.841312 -14.106106 -23.488321 12.335285 0.020375 -0.039956 -0.106094 4.679028 -59.172116 -3.827173 120.836582 77.943405 118.817503 -6.690521 -18.700149 -1.198024 0.010823 0.154176 -0.013914
-34.342526 52.840195 -1.282471 -177.169457 -18.259825 -2.091044 1.014121 15.789126 -0.050561 0.101864 1.565618 -0.021444 0.150221 2.476733 -0.000494 0.880849 14.027215 -0.005334 -2.435203 19.166399 3.581511 -3.396555 -5.318236 4.388241 -0.486398 -1.141062 2.972062 1.588881 -8.015558 -5.985729 -85.911084 -72.963075 120.240935 -8.242653 -16.606993 -15.007381 -4.872755 -1.837594 1.759234 4.079607 -5.377043 9.058228 74.451283 -57.436125 -116.849730 4.935320 -5.433045 6.985213 2.891480 -60.474646 10.401394 -177.650198 86.017400 -179.749630 -14.273971 -23.458069 12.380728 -0.015988 -0.029937 -0.094658 4.720753 -59.107721 -3.854570 120.808777 77.944753 118.791545 -6.696699 -18.705911 -1.191543 0.015110 0.155043 -0.014329
-34.348005 52.840628 -1.277264 -177.181934 -18.323194 -2.073391 1.015001 15.789481 -0.051208 0.092775 1.499249 -0.006329 0.158515 2.541336 -0.015872 0.884780 14.054649 -0.013404 -2.358659 19.170424 3.597106 -3.407990 -5.279252 4.381469 -0.488837 -1.167600 3.001058 1.583720 -7.993822 -5.995975 -85.869090 -72.951105 120.194274 -8.262850 -16.680189 -15.025027 -4.913128 -1.880460 1.768756 4.107212 -5.420189 9.094712 74.101739 -57.370696 -116.489773 4.938561 -5.314274 7.056416 2.870805 -60.412182 10.436847 -177.235389 86.028512 -179.327591 -14.489112 -23.421596 12.441341 -0.025443 -0.020347 -0.091057 4.754842 -59.041137 -3.875004 120.780369 77.946905 118.763567 -6.707639 -18.704915 -1.187805 0.023124 0.133964 -0.003903
-34.351861 52.841910 -1.271067 -177.189772 -18.382107 -2.066463 1.010649 15.770308 -0.039224 0.094479 1.514628 -0.010178 0.163558 2.572378 -0.023683 0.875029 13.958180 0.009358 -2.304112 19.275456 3.574289 -3.399192 -5.249476 4.374068 -0.475338 -1.101234 3.002988 1.574620 -7.972570 -6.006854 -85.990320 -72.889603 120.290303 -8.265824 -16.679572 -15.038091 -4.943171 -1.826448 1.744664 4.129121 -5.468977 9.134442 73.829788 -57.335033 -116.181734 4.937210 -5.234792 7.136240 2.865475 -60.350798 10.433773 -177.160237 86.039711 -179.265361 -14.435172 -23.412122 12.478327 0.007511 -0.022629 -0.108933 4.762331 -58.982678 -3.872589 120.751544 77.953283 118.731700 -6.708529 -18.699026 -1.181003 0.026326 0.127197 -0.002984
-34.354952 52.843511 -1.262865 -177.200504 -18.429944 -2.063264 1.014200 15.770627 -0.028496 0.091467 1.500807 -0.006432 0.160846 2.557416 -0.019774 0.880111 14.004240 -0.001807 -2.253768 19.286405 3.578639 -3.258918 -5.188730 4.342630 -0.468501 -1.114830 3.020737 1.558508 -8.054602 -5.941604 -85.782800 -72.891145 120.058866 -8.264840 -16.676440 -15.051973 -4.980666 -1.859912 1.755458 4.137198 -5.517988 9.175018 73.646888 -57.333198 -115.936144 4.929869 -5.186519 7.225680 2.753088 -60.288440 10.467731 -177.523003 86.050975 -179.695352 -14.084665 -23.435263 12.441001 0.015832 -0.036959 -0.134992 4.766808 -58.935171 -3.864366 120.725691 77.959055 118.702367 -6.709964 -18.699523 -1.170504 0.029002 0.125833 -0.004868
-34.357898 52.844648 -1.251009 -177.209531 -18.455118 -2.061623 1.021393 15.779757 -0.023255 0.081456 1.459408 0.004809 0.159014 2.542579 -0.014842 0.886731 14.047305 -0.012982 -2.208240 19.299206 3.579772 -3.183912 -5.140861 4.315284 -0.464389 -1.099689 3.019772 1.554494 -8.117791 -5.882600 -85.677118 -72.894973 119.926708 -8.270101 -16.694872 -15.067287 -5.018039 -1.886611 1.769132 4.129558 -5.567390 9.213775 73.545176 -57.359835 -115.744972 4.915792 -5.160610 7.321284 2.670638 -60.254562 10.494711 -177.682636 86.066491 -179.903247 -13.801844 -23.442181 12.420081 0.021302 -0.046983 -0.155267 4.775872 -58.911685 -3.866813 120.687909 77.959558 118.665581 -6.708701 -18.696376 -1.168244 0.027973 0.123623 -0.002712
-34.361317 52.847918 -1.243929 -177.228166 -18.509749 -2.056919 1.028224 15.776777 -0.010234 0.079137 1.462102 0.005955 0.159530 2.542665 -0.013955 0.886633 14.005378 0.006380 -2.190753 19.386769 3.540968 -3.116950 -5.105414 4.288402 -0.445082 -1.050641 3.015646 1.543406 -8.125146 -5.862439 -85.559878 -72.917022 119.797968 -8.289492 -16.739896 -15.084083 -5.049108 -1.841927 1.750640 4.111002 -5.617213 9.249590 73.508040 -57.404908 -115.596696 4.897512 -5.141251 7.416602 2.648528 -60.197725 10.512113 -176.883678 86.084909 -179.101224 -13.678536 -23.424796 12.425974 0.023409 -0.049506 -0.161615 4.804846 -58.862045 -3.879843 120.665564 77.951286 118.652952 -6.706578 -18.691087 -1.164121 0.025541 0.119142 -0.006804
